<svg width="448" height="448" viewBox="0 0 448 448" fill="none" xmlns="http://www.w3.org/2000/svg">
<path d="M194.4 179.7C178 190 168.5 208.5 169.5 227.8C170.6 247.2 182.2 264.4 199.6 272.9C217.1 281.3 237.8 279.5 253.6 268.3C270 258 279.5 239.5 278.5 220.2C277.4 200.8 265.8 183.6 248.4 175.1C230.9 166.7 210.2 168.5 194.4 179.7ZM336.7 111.3C331.5 106.1 325.2 102 318.3 99.3C300.2 92.2 260.7 92.5 235.2 92.8C231.1 92.8 227.3 92.9 224 92.9C220.7 92.9 216.8 92.9 212.6 92.8C187.1 92.5 147.8 92.1 129.7 99.3C122.8 102 116.6 106.1 111.3 111.3C106 116.5 102 122.8 99.3 129.7C92.2 147.8 92.6 187.4 92.8 212.9C92.8 217 92.9 220.8 92.9 224C92.9 227.2 92.9 231 92.8 235.1C92.6 260.6 92.2 300.2 99.3 318.3C102 325.2 106.1 331.4 111.3 336.7C116.5 342 122.8 346 129.7 348.7C147.8 355.8 187.3 355.5 212.8 355.2C216.9 355.2 220.7 355.1 224 355.1C227.3 355.1 231.2 355.1 235.4 355.2C260.9 355.5 300.2 355.9 318.3 348.7C325.2 346 331.4 341.9 336.7 336.7C342 331.5 346 325.2 348.7 318.3C355.9 300.3 355.5 260.9 355.2 235.3C355.2 231.1 355.1 227.2 355.1 223.9C355.1 220.6 355.1 216.8 355.2 212.5C355.5 187 355.9 147.6 348.7 129.5C346 122.6 341.9 116.4 336.7 111.1V111.3ZM269.6 155.8C287.7 167.9 300.2 186.7 304.5 208C308.8 229.3 304.3 251.5 292.2 269.6C286.2 278.6 278.5 286.2 269.6 292.2C260.7 298.2 250.6 302.3 240 304.4C218.7 308.6 196.5 304.2 178.4 292.1C160.3 280 147.8 261.2 143.5 239.9C139.2 218.6 143.7 196.4 155.7 178.3C167.7 160.2 186.6 147.7 207.9 143.4C229.2 139.1 251.4 143.6 269.5 155.6H269.6V155.8ZM298.8 154.5C295.7 152.4 293.2 149.4 291.7 145.9C290.2 142.4 289.9 138.6 290.6 134.8C291.3 131 293.2 127.7 295.8 125C298.4 122.3 301.9 120.5 305.6 119.8C309.3 119.1 313.2 119.4 316.7 120.9C320.2 122.4 323.2 124.8 325.3 127.9C327.4 131 328.5 134.7 328.5 138.5C328.5 141 328 143.5 327.1 145.8C326.2 148.1 324.7 150.2 323 152C321.3 153.8 319.1 155.2 316.8 156.2C314.5 157.2 312 157.7 309.5 157.7C305.7 157.7 302 156.6 298.9 154.5H298.8ZM448 64C448 28.7 419.3 0 384 0H64C28.7 0 0 28.7 0 64V384C0 419.3 28.7 448 64 448H384C419.3 448 448 419.3 448 384V64ZM357 357C338.3 375.7 315.6 381.6 290 382.9C263.6 384.4 184.4 384.4 158 382.9C132.4 381.6 109.7 375.7 91 357C72.3 338.3 66.4 315.6 65.2 290C63.7 263.6 63.7 184.4 65.2 158C66.5 132.4 72.3 109.7 91 91C109.7 72.3 132.5 66.4 158 65.2C184.4 63.7 263.6 63.7 290 65.2C315.6 66.5 338.3 72.3 357 91C375.7 109.7 381.6 132.4 382.8 158C384.3 184.3 384.3 263.4 382.8 289.9C381.5 315.5 375.7 338.2 357 356.9V357Z" fill="#333333"/>
</svg>
