<svg width="448" height="448" viewBox="0 0 448 448" fill="none" xmlns="http://www.w3.org/2000/svg">
<path d="M282 224.2L186.8 170.1V278.3L282 224.2ZM384 0H64C28.7 0 0 28.7 0 64V384C0 419.3 28.7 448 64 448H384C419.3 448 448 419.3 448 384V64C448 28.7 419.3 0 384 0ZM398.4 136.1C406 164.7 406 224.3 406 224.3C406 224.3 406 283.9 398.4 312.4C394.2 328.2 381.9 340.1 366.2 344.3C337.9 352 224 352 224 352C224 352 110.1 352 81.8 344.4C66.1 340.2 53.8 328.3 49.6 312.5C42 283.9 42 224.3 42 224.3C42 224.3 42 164.6 49.6 136.1C53.8 120.3 66.1 107.9 81.8 103.7C110.1 96 224 96 224 96C224 96 337.9 96 366.2 103.7C381.9 107.9 394.2 120.3 398.4 136.1Z" fill="#333333"/>
</svg>
